<svg width="40" height="40" viewBox="0 0 40 40" fill="none" xmlns="http://www.w3.org/2000/svg">
<rect width="40" height="40" rx="20" fill="url(#paint0_angular)"/>
<circle cx="20" cy="20" r="17" fill="url(#paint1_angular)"/>
<path d="M31.9 19.4329C31.9 21.6744 31.2353 23.8656 29.99 25.7293C28.7447 27.5931 26.9746 29.0457 24.9037 29.9035C22.8329 30.7613 20.5541 30.9857 18.3556 30.5484C16.1572 30.1111 14.1378 29.0317 12.5528 27.4467C10.9678 25.8617 9.8884 23.8423 9.4511 21.6439C9.01381 19.4454 9.23824 17.1667 10.096 15.0958C10.9538 13.0249 12.4065 11.2549 14.2702 10.0095C16.134 8.76421 18.3251 8.09953 20.5667 8.09953V11.7967C19.0564 11.7967 17.58 12.2446 16.3243 13.0837C15.0685 13.9227 14.0898 15.1153 13.5118 16.5106C12.9339 17.906 12.7826 19.4413 13.0773 20.9226C13.3719 22.4039 14.0992 23.7645 15.1671 24.8324C16.2351 25.9003 17.5957 26.6276 19.0769 26.9222C20.5582 27.2169 22.0936 27.0657 23.4889 26.4877C24.8842 25.9097 26.0768 24.931 26.9159 23.6753C27.7549 22.4195 28.2028 20.9431 28.2028 19.4329H31.9Z" fill="#0068FF" fill-opacity="0.5"/>
<path d="M34.1354 14.1452C35.49 17.4155 35.6687 21.0543 34.6412 24.4416C33.6137 27.8289 31.4434 30.7551 28.5003 32.7217C25.5571 34.6883 22.0231 35.5735 18.5004 35.2266C14.9777 34.8796 11.6843 33.322 9.18133 30.819C6.67835 28.3161 5.12067 25.0227 4.77369 21.5C4.42672 17.9773 5.31192 14.4433 7.27847 11.5001C9.24501 8.55691 12.1712 6.38664 15.5585 5.35908C18.9458 4.33153 22.5846 4.51026 25.8549 5.86482L23.9449 10.4761C21.7415 9.56347 19.2897 9.44305 17.0075 10.1354C14.7252 10.8277 12.7536 12.29 11.4286 14.2731C10.1035 16.2561 9.50712 18.6372 9.7409 21.0107C9.97468 23.3842 11.0242 25.6032 12.7107 27.2897C14.3971 28.9761 16.6161 30.0256 18.9896 30.2594C21.3631 30.4931 23.7442 29.8967 25.7273 28.5716C27.7103 27.2466 29.1726 25.275 29.8649 22.9927C30.5572 20.7104 30.4368 18.2587 29.5241 16.0552L34.1354 14.1452Z" fill="white" fill-opacity="0.9"/>
<circle cx="20.5667" cy="19.4333" r="5.66667" fill="#7000FF" fill-opacity="0.5"/>
<defs>
<radialGradient id="paint0_angular" cx="0" cy="0" r="1" gradientUnits="userSpaceOnUse" gradientTransform="translate(20 20) rotate(90) scale(20 20.7493)">
<stop stop-color="#00F0FF"/>
<stop offset="0.135417" stop-color="#24BDFF"/>
<stop offset="0.265625" stop-color="#44BCFF"/>
<stop offset="0.395833" stop-color="#5E9FFF"/>
<stop offset="0.500756" stop-color="#7E9AFF"/>
<stop offset="0.651042" stop-color="#5E9FFF"/>
<stop offset="0.75" stop-color="#44BCFF"/>
<stop offset="0.833333" stop-color="#24BDFF"/>
<stop offset="0.96875" stop-color="#00F0FF"/>
</radialGradient>
<radialGradient id="paint1_angular" cx="0" cy="0" r="1" gradientUnits="userSpaceOnUse" gradientTransform="translate(20 20) rotate(-47.8624) scale(16.0478 16.0529)">
<stop stop-color="white" stop-opacity="0.1"/>
<stop offset="0.125" stop-color="#98FFEC" stop-opacity="0"/>
<stop offset="0.291667" stop-color="#B6FF94"/>
<stop offset="0.4375" stop-color="#F6FF92"/>
<stop offset="0.5625" stop-color="#F6FF8E"/>
<stop offset="0.708333" stop-color="#A1FF8A"/>
<stop offset="0.875" stop-color="#87FFE9" stop-opacity="0"/>
<stop offset="1" stop-color="white" stop-opacity="0.1"/>
</radialGradient>
</defs>
</svg>
