<?xml version="1.0" standalone="no"?>
<!DOCTYPE svg PUBLIC "-//W3C//DTD SVG 20010904//EN"
 "http://www.w3.org/TR/2001/REC-SVG-20010904/DTD/svg10.dtd">
<svg version="1.0" xmlns="http://www.w3.org/2000/svg"
 width="700.000000pt" height="700.000000pt" viewBox="0 0 700.000000 700.000000"
 preserveAspectRatio="xMidYMid meet">
<metadata>
Created by potrace 1.14, written by Peter Selinger 2001-2017
</metadata>
<g transform="translate(0.000000,700.000000) scale(0.100000,-0.100000)"
fill="#000000" stroke="none">
<path d="M3225 6994 c-315 -26 -681 -108 -975 -221 -1123 -430 -1957 -1415
-2184 -2582 -53 -269 -60 -355 -60 -691 0 -336 7 -422 60 -691 227 -1167 1061
-2152 2184 -2582 374 -143 744 -215 1165 -224 590 -14 1108 98 1630 352 510
248 967 636 1314 1117 267 371 476 853 570 1316 57 279 65 369 65 712 0 246
-4 342 -17 440 -94 668 -335 1239 -740 1749 -128 162 -386 420 -548 548 -511
406 -1081 647 -1744 738 -116 16 -596 29 -720 19z m658 -848 c207 -33 463
-102 599 -160 l37 -16 -55 -132 c-31 -73 -103 -252 -161 -398 -59 -146 -108
-267 -109 -269 -2 -2 -59 15 -126 37 -154 51 -433 102 -561 102 -177 0 -423
-42 -596 -101 -126 -43 -352 -159 -461 -237 -122 -86 -336 -300 -423 -422 -86
-122 -197 -342 -242 -483 -153 -472 -114 -959 111 -1397 369 -716 1179 -1104
1965 -941 232 48 500 164 689 298 122 87 336 301 423 423 133 188 245 447 296
682 66 306 44 628 -66 951 -20 59 -34 109 -32 110 2 2 135 56 294 119 160 64
338 137 398 162 l107 45 16 -37 c60 -140 127 -391 161 -607 22 -138 25 -583 5
-715 -50 -329 -121 -564 -253 -835 -349 -719 -1027 -1257 -1799 -1429 -239
-53 -317 -61 -600 -61 -289 0 -389 11 -615 65 -979 234 -1741 990 -1979 1962
-61 248 -71 340 -71 643 1 288 8 354 61 593 151 677 588 1292 1186 1668 328
205 707 339 1108 390 142 18 559 12 693 -10z m-51 -987 c508 -101 951 -443
1186 -914 70 -141 140 -371 156 -515 4 -30 9 -72 12 -92 l6 -38 -130 0 -129 0
-6 -92 c-23 -352 -199 -700 -466 -923 -159 -133 -331 -222 -541 -278 -111 -30
-122 -31 -320 -31 -197 0 -209 2 -320 31 -517 138 -875 516 -992 1048 -8 39
-13 127 -12 255 1 184 2 201 31 310 151 569 624 967 1196 1006 l97 7 0 130 0
129 68 -7 c37 -3 110 -15 164 -26z"/>
<path d="M3498 4589 c-95 -8 -312 -64 -411 -106 -329 -141 -565 -434 -632
-786 -19 -103 -19 -293 1 -397 128 -676 872 -1058 1490 -766 294 139 481 361
582 692 53 173 64 237 64 374 -1 278 -95 505 -291 701 -218 218 -487 315 -803
288z"/>
</g>
</svg>
